<?xml version="1.0" encoding="utf-8"?>
<!-- Generator: Adobe Illustrator 24.2.0, SVG Export Plug-In . SVG Version: 6.00 Build 0)  -->
<svg version="1.1" xmlns="http://www.w3.org/2000/svg" xmlns:xlink="http://www.w3.org/1999/xlink" x="0px" y="0px"
	 viewBox="0 0 831 234" width="831" height="234" style="enable-background:new 0 0 831 234;" xml:space="preserve">
<style type="text/css">
	.st0{fill:#262626;stroke:#000000;stroke-miterlimit:10;}
	.st1{fill:#FFFFFF;}
	.st2{font-family:'Poppins-Bold';}
	.st3{font-size:87.513px;}
	.st4{fill:none;stroke:#FF0000;stroke-width:2.4309;stroke-miterlimit:12.1546;}
	.st5{fill:none;stroke:#0000FF;stroke-width:2.4309;stroke-miterlimit:12.1546;}
	.st6{fill:#828282;}
	.st7{font-family:'VarelaRound-Regular';}
	.st8{font-size:25.5246px;}
</style>
<g id="Fundo">
	<rect class="st0" width="831" height="234"/>
</g>
<g id="Camada_1">
	<g id="Camada_2_1_">
		<g id="Camada_1-2">
			<text transform="matrix(1 0 0 1 201.6152 145.0771)" class="st1 st2 st3">GoBarber</text>
			<line class="st4" x1="81.2" y1="187.8" x2="749.8" y2="187.8"/>
			<line class="st5" x1="81.2" y1="45.6" x2="749.8" y2="45.6"/>
			<g>
				<text transform="matrix(1 0 0 1 356.0396 21.6719)" class="st6 st7 st8">A</text>
				<text transform="matrix(1 0 0 1 370.7695 21.6719)" class="st6 st7 st8">w</text>
				<text transform="matrix(1 0 0 1 389.0879 21.6719)" class="st6 st7 st8">esome</text>
			</g>
			<g>
				<text transform="matrix(1 0 0 1 306.6431 226.6953)" class="st6 st7 st8">Hai</text>
				<text transform="matrix(1 0 0 1 346.6196 226.6953)" class="st6 st7 st8">r</text>
				<text transform="matrix(1 0 0 1 356.0029 226.6953)" class="st6 st7 st8">cuts &amp;</text>
				<text transform="matrix(1 0 0 1 439.1162 226.6953)" class="st6 st7 st8">S</text>
				<text transform="matrix(1 0 0 1 454.6377 226.6953)" class="st6 st7 st8">h</text>
				<text transform="matrix(1 0 0 1 470.1831 226.6953)" class="st6 st7 st8">a</text>
				<text transform="matrix(1 0 0 1 484.2944 226.6953)" class="st6 st7 st8">v</text>
				<text transform="matrix(1 0 0 1 497.6401 226.6953)" class="st6 st7 st8">es</text>
			</g>
			<circle class="st6" cx="673.3" cy="116.7" r="6.1"/>
			<circle class="st6" cx="150.6" cy="116.7" r="6.1"/>
		</g>
	</g>
</g>
</svg>
